<svg xmlns="http://www.w3.org/2000/svg" viewBox="0 0 64 64" fill="none">
  <defs>
    <linearGradient id="bookGrad" x1="0%" y1="0%" x2="100%" y2="100%">
      <stop offset="0%" style="stop-color:#0c87e8"/>
      <stop offset="100%" style="stop-color:#0b3c6e"/>
    </linearGradient>
  </defs>
  <path d="M8 10C8 8.89543 8.89543 8 10 8H28C29.1046 8 30 8.89543 30 10V54C30 55.1046 29.1046 56 28 56H10C8.89543 56 8 55.1046 8 54V10Z" fill="url(#bookGrad)"/>
  <path d="M34 10C34 8.89543 34.8954 8 36 8H54C55.1046 8 56 8.89543 56 10V54C56 55.1046 55.1046 56 54 56H36C34.8954 56 34 55.1046 34 54V10Z" fill="url(#bookGrad)" opacity="0.7"/>
  <path d="M30 12V52C30 52 32 50 34 52V12C32 10 30 12 30 12Z" fill="#064785"/>
  <rect x="12" y="16" width="14" height="2" rx="1" fill="white" opacity="0.9"/>
  <rect x="12" y="22" width="10" height="2" rx="1" fill="white" opacity="0.6"/>
  <rect x="12" y="28" width="12" height="2" rx="1" fill="white" opacity="0.6"/>
</svg>


